<svg xmlns="http://www.w3.org/2000/svg" viewBox="0 0 267.94 121.38"><defs><style>.cls-1,.cls-6{fill:#ffc600;}.cls-1,.cls-3{stroke:#ffc600;}.cls-1,.cls-3,.cls-4{stroke-miterlimit:10;}.cls-2{fill:#140067;opacity:0.92;}.cls-3,.cls-4,.cls-5{fill:none;}.cls-4{stroke:#fff;stroke-width:2px;}.cls-7{fill:#fff;}</style></defs><g id="Calque_4" data-name="Calque 4"><path class="cls-1" d="M191.84,88.11q-7.59-12-17.16-17.6t-29.11-5.57H113.64V172.68h36q23.3,0,36.54-15.51t13.25-38.63Q199.42,100.15,191.84,88.11Zm-24.15,54q-6.49,10.31-19.89,10.3H137.71V84.75H148a25,25,0,0,1,13.24,3.36q5.5,3.36,9.22,11.68a44.06,44.06,0,0,1,3.71,18.12Q174.2,131.8,167.69,142.1Z" transform="translate(-99.27 -64.44)"/></g><g id="Calque_3" data-name="Calque 3"><path class="cls-2" d="M189.21,91.15q-7.44-12.32-16.83-18t-28.55-5.7H112.5v110.2h35.31q22.84,0,35.84-15.86t13-39.52Q196.64,103.46,189.21,91.15Zm-23.68,55.22Q159.16,156.9,146,156.9h-9.91V87.72h10.13a23.69,23.69,0,0,1,13,3.43q5.42,3.43,9.05,11.95a46.71,46.71,0,0,1,3.64,18.52Q171.91,135.84,165.53,146.37Z" transform="translate(-99.27 -64.44)"/></g><g id="Calque_2" data-name="Calque 2"><line class="cls-3" x1="6.43" y1="18.34" x2="13.41" y2="9.18"/><line class="cls-3" x1="6.43" y1="25.64" x2="18.97" y2="9.18"/><line class="cls-3" x1="6.43" y1="76.95" x2="30.4" y2="44.58"/><polyline class="cls-3" points="6.43 69.21 19.17 52.49 22.87 47.63 30.31 37.85"/><line class="cls-3" x1="6.43" y1="61.5" x2="45.57" y2="10.1"/><line class="cls-3" x1="6.43" y1="53.47" x2="40.16" y2="9.18"/><line class="cls-3" x1="6.43" y1="46.1" x2="34.55" y2="9.18"/><line class="cls-3" x1="6.43" y1="38.96" x2="29.12" y2="9.18"/><line class="cls-3" x1="6.43" y1="32.01" x2="23.82" y2="9.18"/><line class="cls-3" x1="5.57" y1="86.83" x2="30.64" y2="53.53"/><line class="cls-3" x1="6.43" y1="94.12" x2="30.51" y2="62.75"/><line class="cls-3" x1="6.43" y1="103.26" x2="30.51" y2="71.89"/><line class="cls-3" x1="6.43" y1="111.96" x2="30.51" y2="80.6"/><line class="cls-3" x1="11.09" y1="113.82" x2="30.62" y2="88.01"/><line class="cls-3" x1="65.97" y1="51.02" x2="82.84" y2="29.04"/><line class="cls-3" x1="17.78" y1="113.82" x2="32.9" y2="94.12"/><line class="cls-3" x1="66.94" y1="58.32" x2="85.77" y2="33.56"/><line class="cls-3" x1="24.72" y1="113.82" x2="39.7" y2="94.12"/><line class="cls-3" x1="66.7" y1="67.71" x2="88.45" y2="39.12"/><line class="cls-3" x1="31.62" y1="113.82" x2="47.03" y2="93.57"/><line class="cls-3" x1="38.58" y1="113.82" x2="90.49" y2="45.59"/><line class="cls-3" x1="45.28" y1="113.82" x2="92.22" y2="52.12"/><line class="cls-3" x1="52.72" y1="112.33" x2="92.89" y2="59.52"/><line class="cls-3" x1="58.68" y1="112.33" x2="92.22" y2="68.25"/><line class="cls-3" x1="69.13" y1="106.92" x2="89.45" y2="80.21"/><line class="cls-3" x1="6.45" y1="12.42" x2="8.92" y2="9.18"/><polyline class="cls-3" points="37.71 28.21 45.13 18.46 47.28 15.63 51.62 9.94"/><line class="cls-3" x1="42.85" y1="28.42" x2="56.05" y2="10.58"/><line class="cls-3" x1="48.75" y1="29.48" x2="61.86" y2="12.07"/><line class="cls-3" x1="54.09" y1="32.02" x2="67.34" y2="14.76"/><line class="cls-3" x1="58.74" y1="35.68" x2="72.13" y2="17.41"/><line class="cls-3" x1="61.58" y1="39.72" x2="76.27" y2="20.57"/><line class="cls-3" x1="64.03" y1="44.13" x2="79.19" y2="24.39"/></g><g id="Calque_1" data-name="Calque 1"><path class="cls-4" d="M178.47,102.68q-7.59-11.7-17.16-17.1t-29.11-5.4H100.27V184.82h36q23.3,0,36.54-15.06t13.25-37.53Q186.05,114.37,178.47,102.68Zm-24.14,52.43q-6.51,10-19.89,10h-10.1V99.42h10.32a25.56,25.56,0,0,1,13.24,3.26q5.5,3.25,9.22,11.34a41.75,41.75,0,0,1,3.71,17.6Q160.83,145.11,154.33,155.11Z" transform="translate(-99.27 -64.44)"/><path class="cls-5" d="M181.3,176.74" transform="translate(-99.27 -64.44)"/><path class="cls-6" d="M226,97.44v63H211.29v-63Z" transform="translate(-99.27 -64.44)"/><path class="cls-6" d="M238.65,97.44h19.23q11.75,0,17.52,3.25A30.46,30.46,0,0,1,285.72,111q4.56,7,4.57,17.79,0,13.51-8,22.58t-22,9.07H238.65ZM253.14,109v39.54h6.08q8.05,0,12-6a25.36,25.36,0,0,0,3.92-14.14,25,25,0,0,0-2.24-10.59,14.71,14.71,0,0,0-5.55-6.83,15.33,15.33,0,0,0-8-2Z" transform="translate(-99.27 -64.44)"/><path class="cls-6" d="M314.65,97.44v63H299.93v-63Z" transform="translate(-99.27 -64.44)"/><path class="cls-6" d="M367.21,97.44V109.9h-15.6v50.52H336.66V109.9H321V97.44Z" transform="translate(-99.27 -64.44)"/><path class="cls-7" d="M223.69,96.28v63H209v-63Z" transform="translate(-99.27 -64.44)"/><path class="cls-7" d="M236.34,96.28h19.22q11.76,0,17.52,3.25a30.57,30.57,0,0,1,10.33,10.29q4.56,7,4.56,17.79,0,13.52-8,22.58t-22,9.07H236.34Zm14.49,11.58V147.4h6.07q8.07,0,12-6a25.35,25.35,0,0,0,3.91-14.14,25,25,0,0,0-2.23-10.59,14.71,14.71,0,0,0-5.55-6.83,15.37,15.37,0,0,0-8-2Z" transform="translate(-99.27 -64.44)"/><path class="cls-7" d="M312.33,96.28v63H297.61v-63Z" transform="translate(-99.27 -64.44)"/><path class="cls-7" d="M364.89,96.28v12.45h-15.6v50.53h-15V108.73H318.66V96.28Z" transform="translate(-99.27 -64.44)"/></g></svg>