<svg id="Calque_1" data-name="Calque 1" xmlns="http://www.w3.org/2000/svg" viewBox="0 0 100.65 121.38"><defs><style>.cls-1{fill:#ffc600;}.cls-1,.cls-3{stroke:#ffc600;}.cls-1,.cls-3,.cls-4{stroke-miterlimit:10;}.cls-2{fill:#140067;opacity:0.92;}.cls-3,.cls-4,.cls-5{fill:none;}.cls-4{stroke:#fff;stroke-width:2px;}</style></defs><path class="cls-1" d="M183.59,107.1q-7.58-12-17.15-17.61t-29.11-5.56H105.39V191.67h36q23.28,0,36.53-15.51t13.25-38.64Q191.17,119.13,183.59,107.1Zm-24.14,54q-6.49,10.3-19.89,10.31h-10.1V103.74h10.33A24.92,24.92,0,0,1,153,107.1q5.52,3.34,9.22,11.68A43.89,43.89,0,0,1,166,136.89Q166,150.78,159.45,161.08Z" transform="translate(-91.02 -83.43)"/><path class="cls-2" d="M181,110.13q-7.44-12.3-16.83-18t-28.54-5.69H104.26V196.63h35.31q22.83,0,35.83-15.86t13-39.51Q188.4,122.45,181,110.13Zm-23.68,55.22q-6.37,10.54-19.51,10.54h-9.9V106.7H138a23.77,23.77,0,0,1,13,3.43q5.4,3.44,9,12a46.62,46.62,0,0,1,3.64,18.53Q163.66,154.82,157.28,165.35Z" transform="translate(-91.02 -83.43)"/><line class="cls-3" x1="6.43" y1="18.34" x2="13.41" y2="9.18"/><line class="cls-3" x1="6.43" y1="25.64" x2="18.97" y2="9.18"/><line class="cls-3" x1="6.43" y1="76.95" x2="30.4" y2="44.58"/><polyline class="cls-3" points="6.43 69.21 19.17 52.49 22.87 47.63 30.31 37.85"/><line class="cls-3" x1="6.43" y1="61.5" x2="45.57" y2="10.1"/><line class="cls-3" x1="6.43" y1="53.47" x2="40.16" y2="9.18"/><line class="cls-3" x1="6.43" y1="46.1" x2="34.55" y2="9.18"/><line class="cls-3" x1="6.43" y1="38.96" x2="29.12" y2="9.18"/><line class="cls-3" x1="6.43" y1="32.01" x2="23.82" y2="9.18"/><line class="cls-3" x1="5.57" y1="86.83" x2="30.64" y2="53.53"/><line class="cls-3" x1="6.43" y1="94.12" x2="30.51" y2="62.75"/><line class="cls-3" x1="6.43" y1="103.26" x2="30.51" y2="71.89"/><line class="cls-3" x1="6.43" y1="111.96" x2="30.51" y2="80.6"/><line class="cls-3" x1="11.09" y1="113.82" x2="30.62" y2="88.01"/><line class="cls-3" x1="65.97" y1="51.02" x2="82.84" y2="29.04"/><line class="cls-3" x1="17.78" y1="113.82" x2="32.9" y2="94.12"/><line class="cls-3" x1="66.94" y1="58.32" x2="85.77" y2="33.56"/><line class="cls-3" x1="24.72" y1="113.82" x2="39.7" y2="94.12"/><line class="cls-3" x1="66.7" y1="67.71" x2="88.45" y2="39.12"/><line class="cls-3" x1="31.62" y1="113.82" x2="47.03" y2="93.57"/><line class="cls-3" x1="38.58" y1="113.82" x2="90.49" y2="45.59"/><line class="cls-3" x1="45.28" y1="113.82" x2="92.22" y2="52.12"/><line class="cls-3" x1="52.72" y1="112.33" x2="92.89" y2="59.52"/><line class="cls-3" x1="58.68" y1="112.33" x2="92.22" y2="68.25"/><line class="cls-3" x1="69.13" y1="106.92" x2="89.45" y2="80.21"/><line class="cls-3" x1="6.45" y1="12.42" x2="8.92" y2="9.18"/><polyline class="cls-3" points="37.71 28.21 45.13 18.46 47.28 15.63 51.62 9.94"/><line class="cls-3" x1="42.85" y1="28.42" x2="56.05" y2="10.58"/><line class="cls-3" x1="48.75" y1="29.48" x2="61.86" y2="12.07"/><line class="cls-3" x1="54.09" y1="32.02" x2="67.34" y2="14.76"/><line class="cls-3" x1="58.74" y1="35.68" x2="72.13" y2="17.41"/><line class="cls-3" x1="61.58" y1="39.72" x2="76.27" y2="20.57"/><line class="cls-3" x1="64.03" y1="44.13" x2="79.19" y2="24.39"/><path class="cls-4" d="M170.22,121.66q-7.58-11.68-17.15-17.09T124,99.16H92V203.81h36q23.28,0,36.53-15.07t13.25-37.52Q177.8,133.36,170.22,121.66ZM146.08,174.1q-6.5,10-19.89,10h-10.1V118.41h10.33a25.54,25.54,0,0,1,13.23,3.25q5.52,3.27,9.22,11.35a41.59,41.59,0,0,1,3.71,17.59Q152.58,164.1,146.08,174.1Z" transform="translate(-91.02 -83.43)"/><path class="cls-5" d="M173.05,195.73" transform="translate(-91.02 -83.43)"/></svg>